<svg width="72" height="72" viewBox="0 0 72 72" fill="none" xmlns="http://www.w3.org/2000/svg">
<path d="M15 17.1818V22.8636H0.625V17.1818H15ZM3.40909 11.9545H11.25V31.983C11.25 32.286 11.3021 32.5417 11.4062 32.75C11.5104 32.9489 11.6714 33.1004 11.8892 33.2045C12.107 33.2992 12.3864 33.3466 12.7273 33.3466C12.964 33.3466 13.2386 33.3182 13.5511 33.2614C13.8731 33.2045 14.1098 33.1572 14.2614 33.1193L15.3977 38.6307C15.0473 38.7348 14.5455 38.8627 13.892 39.0142C13.2481 39.1657 12.4811 39.2652 11.5909 39.3125C9.79167 39.4072 8.28125 39.2225 7.05966 38.7585C5.83807 38.285 4.91951 37.5417 4.30398 36.5284C3.68845 35.5152 3.39015 34.2462 3.40909 32.7216V11.9545ZM28.4766 39.3977C26.1091 39.3977 24.0826 38.929 22.397 37.9915C20.7114 37.0445 19.4188 35.7282 18.5192 34.0426C17.6196 32.3475 17.1697 30.3826 17.1697 28.1477C17.1697 25.9129 17.6196 23.9527 18.5192 22.267C19.4188 20.572 20.7114 19.2557 22.397 18.3182C24.0826 17.3712 26.1091 16.8977 28.4766 16.8977C30.844 16.8977 32.8705 17.3712 34.5561 18.3182C36.2417 19.2557 37.5343 20.572 38.4339 22.267C39.3336 23.9527 39.7834 25.9129 39.7834 28.1477C39.7834 30.3826 39.3336 32.3475 38.4339 34.0426C37.5343 35.7282 36.2417 37.0445 34.5561 37.9915C32.8705 38.929 30.844 39.3977 28.4766 39.3977ZM28.5334 33.6023C29.1963 33.6023 29.7692 33.3797 30.2521 32.9347C30.7351 32.4896 31.1091 31.8551 31.3743 31.0312C31.6394 30.2074 31.772 29.2273 31.772 28.0909C31.772 26.9451 31.6394 25.965 31.3743 25.1506C31.1091 24.3267 30.7351 23.6922 30.2521 23.2472C29.7692 22.8021 29.1963 22.5795 28.5334 22.5795C27.8326 22.5795 27.2313 22.8021 26.7294 23.2472C26.2275 23.6922 25.844 24.3267 25.5788 25.1506C25.3137 25.965 25.1811 26.9451 25.1811 28.0909C25.1811 29.2273 25.3137 30.2074 25.5788 31.0312C25.844 31.8551 26.2275 32.4896 26.7294 32.9347C27.2313 33.3797 27.8326 33.6023 28.5334 33.6023Z" fill="#4EA8DE"/>
<path d="M30.8864 63.2841C29.3333 63.2841 27.9034 62.8769 26.5966 62.0625C25.2992 61.2481 24.2576 60.0123 23.4716 58.3551C22.6951 56.6979 22.3068 54.6098 22.3068 52.0909C22.3068 49.4583 22.714 47.3182 23.5284 45.6705C24.3523 44.0227 25.4129 42.8153 26.7102 42.0483C28.017 41.2812 29.3902 40.8977 30.8295 40.8977C31.9091 40.8977 32.8561 41.0871 33.6705 41.4659C34.4848 41.8352 35.1667 42.3324 35.7159 42.9574C36.2652 43.5729 36.6818 44.25 36.9659 44.9886H37.0795V33.9091H44.9205V63H37.1364V59.4205H36.9659C36.6629 60.1591 36.2273 60.822 35.6591 61.4091C35.1004 61.9867 34.4186 62.446 33.6136 62.7869C32.8182 63.1184 31.9091 63.2841 30.8864 63.2841ZM33.7841 57.2614C34.5038 57.2614 35.1193 57.053 35.6307 56.6364C36.1515 56.2102 36.5492 55.6136 36.8239 54.8466C37.108 54.0701 37.25 53.1515 37.25 52.0909C37.25 51.0114 37.108 50.0881 36.8239 49.321C36.5492 48.5445 36.1515 47.9527 35.6307 47.5455C35.1193 47.1288 34.5038 46.9205 33.7841 46.9205C33.0644 46.9205 32.4489 47.1288 31.9375 47.5455C31.4356 47.9527 31.0473 48.5445 30.7727 49.321C30.5076 50.0881 30.375 51.0114 30.375 52.0909C30.375 53.1705 30.5076 54.0985 30.7727 54.875C31.0473 55.642 31.4356 56.2339 31.9375 56.6506C32.4489 57.0578 33.0644 57.2614 33.7841 57.2614ZM59.2812 63.3977C56.9138 63.3977 54.8873 62.929 53.2017 61.9915C51.5161 61.0445 50.2235 59.7282 49.3239 58.0426C48.4242 56.3475 47.9744 54.3826 47.9744 52.1477C47.9744 49.9129 48.4242 47.9527 49.3239 46.267C50.2235 44.572 51.5161 43.2557 53.2017 42.3182C54.8873 41.3712 56.9138 40.8977 59.2812 40.8977C61.6487 40.8977 63.6752 41.3712 65.3608 42.3182C67.0464 43.2557 68.339 44.572 69.2386 46.267C70.1383 47.9527 70.5881 49.9129 70.5881 52.1477C70.5881 54.3826 70.1383 56.3475 69.2386 58.0426C68.339 59.7282 67.0464 61.0445 65.3608 61.9915C63.6752 62.929 61.6487 63.3977 59.2812 63.3977ZM59.3381 57.6023C60.0009 57.6023 60.5739 57.3797 61.0568 56.9347C61.5398 56.4896 61.9138 55.8551 62.179 55.0312C62.4441 54.2074 62.5767 53.2273 62.5767 52.0909C62.5767 50.9451 62.4441 49.965 62.179 49.1506C61.9138 48.3267 61.5398 47.6922 61.0568 47.2472C60.5739 46.8021 60.0009 46.5795 59.3381 46.5795C58.6373 46.5795 58.036 46.8021 57.5341 47.2472C57.0322 47.6922 56.6487 48.3267 56.3835 49.1506C56.1184 49.965 55.9858 50.9451 55.9858 52.0909C55.9858 53.2273 56.1184 54.2074 56.3835 55.0312C56.6487 55.8551 57.0322 56.4896 57.5341 56.9347C58.036 57.3797 58.6373 57.6023 59.3381 57.6023Z" fill="#5E60CE"/>
</svg>
